/* XPM */
static const char * icon_small_xpm[] = {
"64 64 127 2",
"  	c None",
". 	c #000000",
"+ 	c #030C17",
"@ 	c #142C47",
"# 	c #1E3D5F",
"$ 	c #22446A",
"% 	c #24476D",
"& 	c #152C47",
"* 	c #040C18",
"= 	c #0E2136",
"- 	c #264B72",
"; 	c #315E8F",
"> 	c #346396",
", 	c #346395",
"' 	c #336294",
") 	c #336295",
"! 	c #264B73",
"~ 	c #02070F",
"{ 	c #224468",
"] 	c #336192",
"^ 	c #326092",
"/ 	c #224367",
"( 	c #25486F",
"_ 	c #2C5582",
": 	c #050F1C",
"< 	c #2A517C",
"[ 	c #264A72",
"} 	c #315D8E",
"| 	c #23456B",
"1 	c #040F1C",
"2 	c #25486E",
"3 	c #29507A",
"4 	c #315E8E",
"5 	c #25496F",
"6 	c #2E5885",
"7 	c #2C5480",
"8 	c #2A507A",
"9 	c #294F79",
"0 	c #295079",
"a 	c #2C5581",
"b 	c #2D5785",
"c 	c #346295",
"d 	c #315D8D",
"e 	c #224368",
"f 	c #336193",
"g 	c #1F3C5D",
"h 	c #2A517A",
"i 	c #294E76",
"j 	c #284D75",
"k 	c #294E77",
"l 	c #214165",
"m 	c #2D5683",
"n 	c #24466B",
"o 	c #2F5A89",
"p 	c #284E77",
"q 	c #2B537E",
"r 	c #326091",
"s 	c #325F90",
"t 	c #2B527D",
"u 	c #2D5682",
"v 	c #284D76",
"w 	c #040C17",
"x 	c #2B537F",
"y 	c #2A517B",
"z 	c #25476D",
"A 	c #305C8C",
"B 	c #2B527E",
"C 	c #336194",
"D 	c #2B547F",
"E 	c #2A507B",
"F 	c #2E5886",
"G 	c #2D5784",
"H 	c #336092",
"I 	c #2A527D",
"J 	c #224469",
"K 	c #2B5480",
"L 	c #305D8D",
"M 	c #2F5B8A",
"N 	c #305C8B",
"O 	c #274C74",
"P 	c #2C547F",
"Q 	c #305B8A",
"R 	c #2C537F",
"S 	c #2D5581",
"T 	c #2B527C",
"U 	c #274C75",
"V 	c #2E5987",
"W 	c #1C3857",
"X 	c #224264",
"Y 	c #1A3551",
"Z 	c #1A3552",
"` 	c #234469",
" .	c #1F3D5E",
"..	c #294F78",
"+.	c #2E5785",
"@.	c #305B8B",
"#.	c #315F8F",
"$.	c #305D8C",
"%.	c #2C5683",
"&.	c #29507B",
"*.	c #325F91",
"=.	c #2C5682",
"-.	c #2C5481",
";.	c #274B73",
">.	c #2A527C",
",.	c #264A71",
"'.	c #23456A",
").	c #274D75",
"!.	c #294E78",
"~.	c #2F5B89",
"{.	c #325F8F",
"].	c #2F5988",
"^.	c #284E76",
"/.	c #254970",
"(.	c #284E78",
"_.	c #2C5580",
":.	c #2E5988",
"<.	c #2E5887",
"[.	c #325E8F",
"}.	c #2D5684",
"|.	c #274D76",
"1.	c #142C46",
"2.	c #274B74",
"3.	c #284F78",
"4.	c #2F5B8B",
"5.	c #02060F",
"6.	c #030B16",
"                    . . . . . . . . . . . . . . . . . . . . . . . . . . . . . . . . . . . . . . . . . . . .                     ",
"                . . . . . . . . . . . . . . . . . . . . . . . . . . . . . . . . . . . . . . . . . . . . . . . .                 ",
"            . . . . + @ # $ % % % % % % % % % % % % % % % % % % % % % % % % % % % % % % % % % % % % $ # & * . . . .             ",
"          . . . = - ; > > > > > > > > > > > > > , ' ' ' ' ' ' ' ' ' ' ' ' ' ) > > > > > > > > > > > > > > ; ! = . . .           ",
"        . . ~ { ] > > > > > > > > > > > > > > ^ / ( ( ( ( ( ( ( ( ( ( ( ( ( { _ > > > > > > > > > > > > > > > ] { ~ . .         ",
"      . . : < > > > > > > > > > > > > > > > > [ } > > > > > > > > > > > > > > | ) > > > > > > > > > > > > > > > > < 1 . .       ",
"    . . ~ < > > > > > > > > > > > > > > > > > 2 > > > > > > > > > > > > > > > 3 4 > > > > > > > > > > > > > > > > > < ~ . .     ",
"    . . { > > > > > > > > > > > > > > > > > > 5 > ' 6 7 8 9 0 9 9 9 0 0 a b c 8 d > > > > > > > > > > > > > > > > > > e . .     ",
"  . . = ] > > > > > > > > > > > > > > > > > > 5 > f g 2 h i i j j j k k 2 l c 8 d > > > > > > > > > > > > > > > > > > ] = . .   ",
"  . . - > > > > > > > > > > > > > > ' a m m m n o o p a q r > > > > s t u 3 o v t m m m _ c > > > > > > > > > > > > > > - . .   ",
". . w ; > > > > > > > > > > > > > > x j y 8 ' , > c 0 j z A > > > > o 2 p B , > , s < < v _ > > > > > > > > > > > > > > ; + . . ",
". . @ > > > > > > > > > > > > > > > q v a v C > > > 3 8 q 4 > > > > A _ y q > > > d 3 D E x > > > > > > > > > > > > > > > @ . . ",
". . # > > > > > > > > > > > > > > > x E k E ' > > > 3 F G f > > > > H G F q > > > } q 9 I x > > > > > > > > > > > > > > > # . . ",
". . J > > > > > > > > > > > > > > > K L M A > > > > 3 d > > > > > > > > N q > > > > N M } D > > > > > > > > > > > > > > > J . . ",
". . % > > > > > > > > > > > > > > > x 9 O 9 ' > > > 3 t P P A L L Q R S T q > > > ; < O 3 x > > > > > > > > > > > > > > > % . . ",
". . % > > > > > > > > > > > > > > > q U F ! L q a Q v j V W X Y Z `  .b k I > > > d ..m 3 x > > > > > > > > > > > > > > > % . . ",
". . % > > > > > > > > > > > > > > > x 9 O 9 } 7 m M o +.F 6 6 F F 6 F F 6 @.> > > #.y j 3 x > > > > > > > > > > > > > > > % . . ",
". . % > > > > > > > > > > > > > > > K A o @.> > > > a T ) > > > > > > > > > > $.M > M o A D > > > > > > > > > > > > > > > % . . ",
". . % > > > > > > > > > > > > > > > q t 7 q ' > > > P 7 ' > > > > > > > > > > %.m } u 7 q x > > > > > > > > > > > > > > > % . . ",
". . % > > > > > > > > > > > > > > > q p 7 p C > > > d M > > > > > > > > > > > V G d y q &.x > > > > > > > > > > > > > > > % . . ",
". . % > > > > > > > > > > > > > > > x x +.x c > > > x q d > > > > > > > > > > 6 G ; 7 +.x x > > > > > > > > > > > > > > > % . . ",
". . % > > > > > > > > > > > > > > > K F b b > > > ' B 3 o d d d d d d d *.> > I I ; G b F D > > > > > > > > > > > > > > > % . . ",
". . % > > > > > > > > > > > > > > > q < x I C > > o 6 d d d d d d d d d y > > =.a o a x q x > > > > > > > > > > > > > > > % . . ",
". . % > > > > > > > > > > > > > > > q 3 q 8 C > > o d > > > > > > > > > B > > 7 x o P t I x > > > > > > > > > > > > > > > % . . ",
". . % > > > > > > > > > > > > > > > K 7 =.K c > > o d > > > > > > > > > B > > B I 4 7 =._ D > > > > > > > > > > > > > > > % . . ",
". . % > > > > > > > > > > > > > > > D 7 m 7 c > > o d > > > > > > > > > B > > b m s -.m =.D > > > > > > > > > > > > > > > % . . ",
". . % > > > > > > > > > > > > > > > q 0 x 3 C > > o d > > > > > > > > > B > , O ;.V B t I x > > > > > > > > > > > > > > > % . . ",
". . % > > > > > > > > > > > > > > > q >.x I C > > o d > > > > > > > > > B > > ,.'.6 a x q x > > > > > > > > > > > > > > > % . . ",
". . % > > > > > > > > > > > > > > > K F +.+.> > > o d > > > > > > > > > B > , G 4 G G +.V D > > > > > > > > > > > > > > > % . . ",
". . % > > > > > > > > > > > > > > > x y I y c > > o d > > > > > > > > > B > , b s K B I I x > > > > > > > > > > > > > > > % . . ",
". . % > > > > > > > > > > > > > > > q v -.).C > y 7 d > > > > > > > > > B > , y _ < 8 x &.x > > > > > > > > > > > > > > > % . . ",
". . % > > > > > > > > > > > > > > > q E !.E ' , x 9 d > > > > > > > > > B > > %.7 Q q 9 >.x > > > > > > > > > > > > > > > % . . ",
". . % > > > > > > > > > > > > > > > K L ~.A > > _ o D =.=.=.=.=.=.=.=.=.m > > t t s @.~.d D > > > > > > > > > > > > > > > % . . ",
". . % > > > > > > > > > > > > > > > x 9 O 9 ' > > > > > > > > } c > V _ a > > > > ; < j 3 x > > > > > > > > > > > > > > > % . . ",
". . % > > > > > > > > > > > > > > > q U F O C > > > > > > > ' U } > ; G M > > > > d 9 m 3 x > > > > > > > > > > > > > > > % . . ",
". . % > > > > > > > > > > > > > > > x 9 O 9 ' > > > > > > > ) 5 {.> > > > > > > > #.8 j 3 x > > > > > > > > > > > > > > > % . . ",
". . % > > > > > > > > > > > > > > > K A o N > > > =.G G m V > > > > > > > > > > > > M o L D > > > > > > > > > > > > > > > % . . ",
". . % > > > > > > > > > > > > > > > q t D q ' > ].I > > ' _ > > > > > > > _ K V > } _ 7 q x > > > > > > > > > > > > > > > % . . ",
". . % > > > > > > > > > > > > > > > q ^.-.v C , q /.> > ' _ } } ] > > > > q ;.V > d E q y x > > > > > > > > > > > > > > > % . . ",
". . % > > > > > > > > > > > > > > > x q b q c , (.O > > ' K q N a > > > > (.O 7 > r 7 b x x > > > > > > > > > > > > > > > % . . ",
". . % > > > > > > > > > > > > > > > K 6 +.+.> > > a B B I V 7 7 A > > > > m _.:.> ' G +.<.D > > > > > > > > > > > > > > > % . . ",
". . % > > > > > > > > > > > > > > > q >.D I C > > > > 7 4 > > > > > > > > G q M > d a x q x > > > > > > > > > > > > > > > % . . ",
". . % > > > > > > > > > > > > > > > q 3 t 3 C > > > > (.F > > > > > > > > @.x 4 _ A x t I x > > > > > > > > > > > > > > > % . . ",
". . % > > > > > > > > > > > > > > > K 7 u D c > > > > u [.> A 4 > x =.B c m @.K 3 r 7 u a D > > > > > > > > > > > > > > > % . . ",
". . % > > > > > > > > > > > > > > > D 7 m K c > > > > > > C ( [ c 7 ; D ' @._ L y ^ 7 m =.D > > > > > > > > > > > > > > > % . . ",
". . % > > > > > > > > > > > > > > > q 0 q 3 C > 4 F F F F d ' ' > A x 3 F F F ; > d q I I x > > > > > > > > > > > > > > > % . . ",
". . % > > > > > > > > > > > > > > > q >.q I C > G ' ' ' ' _ > > > > }.' ' ' C =.> d a I q x > > > > > > > > > > > > > > > % . . ",
". . % > > > > > > > > > > > > > > > K }.7 =.> > G > > > > u > > > > G > > > > m > ) a 7 F D > > > > > > > > > > > > > > > % . . ",
". . % > > > > > > > > > > > > > > > x < t < c > _ b b b b D > > > > x b b b G _ > r q t I x > > > > > > > > > > > > > > > % . . ",
". . % > > > > > > > > > > > > > > > q v 7 U C > > c c c c , > > > > , c c c c > > d 8 q &.x > > > > > > > > > > > > > > > % . . ",
". . J > > > > > > > > > > > > > > > q y 9 y K m m m m o > > > > > > > > F m m m m E q 0 < x > > > > > > > > > > > > > > > J . . ",
". . # > > > > > > > > > > > > > > > K $.~.N q > > > , 7 > > > > > > > > D > > > > I Q ~.d D > > > > > > > > > > > > > > > # . . ",
". . @ > > > > > > > > > > > > > > > x 8 ..9 >.> > > > -.> > > > > > > > K > > > > |.>.0 E x > > > > > > > > > > > > > > > 1.. . ",
". . + ; > > > > > > > > > > > > > > q U +.2.< > > > > -.> V -.-.-.-.+.> K > > > > ! 9 =.3 x > > > > > > > > > > > > > > ; + . . ",
"  . . [ > > > > > > > > > > > > > > x y 9 8 I > > > > -.> t , , , , x > K > > > > |.I 8 y x > > > > > > > > > > > > > > - . .   ",
"  . . = ] > > > > > > > > > > > > > K A o @.).- [ v < [ @...> > > > y @.2 t U [ O 3.M o L D > > > > > > > > > > > > > H = . .   ",
"    . . e > > > > > > > > > > > > > q y 0 y @.q 9 >.F _ I ..> > > > -.< _ 6 3 ..3 @.q 0 < x > > > > > > > > > > > > > e . .     ",
"    . . ~ < > > > > > > > > > > > > q ^.D v 4.8 I < o x < I > > > > _ 3 D b p x v M E B y x > > > > > > > > > > > > < ~ . .     ",
"      . . 1 < > > > > > > > > > > > x v I y ; q q q M K x ( %.%.%.%.).q D N >.I y ; I q v _ > > > > > > > > > > > < 1 . .       ",
"        . . 5.e ] > > > > > > > > > ' 7 q q q q q q q q q q t t t t B q q q q q q q q q a c > > > > > > > > > H e ~ . .         ",
"          . . . = [ ; > > > > > > > > > > > > > > > > > > > > > > > > > > > > > > > > > > > > > > > > > > ; - = . . .           ",
"            . . . . 6.1.# J % % % % % % % % % % % % % % % % % % % % % % % % % % % % % % % % % % % % J # 1.w . . . .             ",
"                . . . . . . . . . . . . . . . . . . . . . . . . . . . . . . . . . . . . . . . . . . . . . . . .                 ",
"                    . . . . . . . . . . . . . . . . . . . . . . . . . . . . . . . . . . . . . . . . . . . .                     "};
